<?xml version="1.0" encoding="UTF-8" standalone="no"?>
<!DOCTYPE svg PUBLIC "-//W3C//DTD SVG 1.1//EN" "http://www.w3.org/Graphics/SVG/1.1/DTD/svg11.dtd">
<svg width="100%" height="100%" viewBox="0 0 64 64" version="1.1" xmlns="http://www.w3.org/2000/svg" xmlns:xlink="http://www.w3.org/1999/xlink" xml:space="preserve" xmlns:serif="http://www.serif.com/" style="fill-rule:evenodd;clip-rule:evenodd;stroke-linejoin:round;stroke-miterlimit:2;">
    <g transform="matrix(0.179272,0,0,0.179272,0,0)">
        <g>
            <rect x="0" y="0" width="357" height="357" style="fill:white;"/>
            <rect x="112" y="4" width="12" height="12"/>
            <rect x="160" y="4" width="12" height="12"/>
            <rect x="172" y="4" width="12" height="12"/>
            <rect x="184" y="4" width="12" height="12"/>
            <rect x="220" y="4" width="12" height="12"/>
            <rect x="232" y="4" width="12" height="12"/>
            <rect x="244" y="4" width="12" height="12"/>
            <rect x="112" y="16" width="12" height="12"/>
            <rect x="124" y="16" width="12" height="12"/>
            <rect x="148" y="16" width="12" height="12"/>
            <rect x="160" y="16" width="12" height="12"/>
            <rect x="172" y="16" width="12" height="12"/>
            <rect x="184" y="16" width="12" height="12"/>
            <rect x="196" y="16" width="12" height="12"/>
            <rect x="208" y="16" width="12" height="12"/>
            <rect x="232" y="16" width="12" height="12"/>
            <rect x="100" y="28" width="12" height="12"/>
            <rect x="136" y="28" width="12" height="12"/>
            <rect x="160" y="28" width="12" height="12"/>
            <rect x="184" y="28" width="12" height="12"/>
            <rect x="220" y="28" width="12" height="12"/>
            <rect x="232" y="28" width="12" height="12"/>
            <rect x="100" y="40" width="12" height="12"/>
            <rect x="112" y="40" width="12" height="12"/>
            <rect x="136" y="40" width="12" height="12"/>
            <rect x="148" y="40" width="12" height="12"/>
            <rect x="172" y="40" width="12" height="12"/>
            <rect x="184" y="40" width="12" height="12"/>
            <rect x="208" y="40" width="12" height="12"/>
            <rect x="220" y="40" width="12" height="12"/>
            <rect x="100" y="52" width="12" height="12"/>
            <rect x="124" y="52" width="12" height="12"/>
            <rect x="136" y="52" width="12" height="12"/>
            <rect x="148" y="52" width="12" height="12"/>
            <rect x="184" y="52" width="12" height="12"/>
            <rect x="196" y="52" width="12" height="12"/>
            <rect x="232" y="52" width="12" height="12"/>
            <rect x="100" y="64" width="12" height="12"/>
            <rect x="112" y="64" width="12" height="12"/>
            <rect x="124" y="64" width="12" height="12"/>
            <rect x="148" y="64" width="12" height="12"/>
            <rect x="208" y="64" width="12" height="12"/>
            <rect x="244" y="64" width="12" height="12"/>
            <rect x="100" y="76" width="12" height="12"/>
            <rect x="124" y="76" width="12" height="12"/>
            <rect x="148" y="76" width="12" height="12"/>
            <rect x="172" y="76" width="12" height="12"/>
            <rect x="196" y="76" width="12" height="12"/>
            <rect x="220" y="76" width="12" height="12"/>
            <rect x="244" y="76" width="12" height="12"/>
            <rect x="100" y="88" width="12" height="12"/>
            <rect x="112" y="88" width="12" height="12"/>
            <rect x="136" y="88" width="12" height="12"/>
            <rect x="148" y="88" width="12" height="12"/>
            <rect x="172" y="88" width="12" height="12"/>
            <rect x="196" y="88" width="12" height="12"/>
            <rect x="208" y="88" width="12" height="12"/>
            <rect x="220" y="88" width="12" height="12"/>
            <rect x="232" y="88" width="12" height="12"/>
            <rect x="244" y="88" width="12" height="12"/>
            <rect x="4" y="100" width="12" height="12"/>
            <rect x="28" y="100" width="12" height="12"/>
            <rect x="40" y="100" width="12" height="12"/>
            <rect x="52" y="100" width="12" height="12"/>
            <rect x="64" y="100" width="12" height="12"/>
            <rect x="76" y="100" width="12" height="12"/>
            <rect x="112" y="100" width="12" height="12"/>
            <rect x="196" y="100" width="12" height="12"/>
            <rect x="208" y="100" width="12" height="12"/>
            <rect x="244" y="100" width="12" height="12"/>
            <rect x="268" y="100" width="12" height="12"/>
            <rect x="280" y="100" width="12" height="12"/>
            <rect x="292" y="100" width="12" height="12"/>
            <rect x="304" y="100" width="12" height="12"/>
            <rect x="316" y="100" width="12" height="12"/>
            <rect x="4" y="112" width="12" height="12"/>
            <rect x="16" y="112" width="12" height="12"/>
            <rect x="28" y="112" width="12" height="12"/>
            <rect x="136" y="112" width="12" height="12"/>
            <rect x="148" y="112" width="12" height="12"/>
            <rect x="160" y="112" width="12" height="12"/>
            <rect x="172" y="112" width="12" height="12"/>
            <rect x="184" y="112" width="12" height="12"/>
            <rect x="244" y="112" width="12" height="12"/>
            <rect x="268" y="112" width="12" height="12"/>
            <rect x="292" y="112" width="12" height="12"/>
            <rect x="304" y="112" width="12" height="12"/>
            <rect x="328" y="112" width="12" height="12"/>
            <rect x="52" y="124" width="12" height="12"/>
            <rect x="76" y="124" width="12" height="12"/>
            <rect x="112" y="124" width="12" height="12"/>
            <rect x="124" y="124" width="12" height="12"/>
            <rect x="136" y="124" width="12" height="12"/>
            <rect x="148" y="124" width="12" height="12"/>
            <rect x="160" y="124" width="12" height="12"/>
            <rect x="172" y="124" width="12" height="12"/>
            <rect x="184" y="124" width="12" height="12"/>
            <rect x="196" y="124" width="12" height="12"/>
            <rect x="208" y="124" width="12" height="12"/>
            <rect x="280" y="124" width="12" height="12"/>
            <rect x="304" y="124" width="12" height="12"/>
            <rect x="316" y="124" width="12" height="12"/>
            <rect x="28" y="136" width="12" height="12"/>
            <rect x="52" y="136" width="12" height="12"/>
            <rect x="100" y="136" width="12" height="12"/>
            <rect x="136" y="136" width="12" height="12"/>
            <rect x="160" y="136" width="12" height="12"/>
            <rect x="184" y="136" width="12" height="12"/>
            <rect x="208" y="136" width="12" height="12"/>
            <rect x="220" y="136" width="12" height="12"/>
            <rect x="232" y="136" width="12" height="12"/>
            <rect x="244" y="136" width="12" height="12"/>
            <rect x="256" y="136" width="12" height="12"/>
            <rect x="268" y="136" width="12" height="12"/>
            <rect x="280" y="136" width="12" height="12"/>
            <rect x="292" y="136" width="12" height="12"/>
            <rect x="304" y="136" width="12" height="12"/>
            <rect x="340" y="136" width="12" height="12"/>
            <rect x="4" y="148" width="12" height="12"/>
            <rect x="16" y="148" width="12" height="12"/>
            <rect x="28" y="148" width="12" height="12"/>
            <rect x="40" y="148" width="12" height="12"/>
            <rect x="64" y="148" width="12" height="12"/>
            <rect x="76" y="148" width="12" height="12"/>
            <rect x="88" y="148" width="12" height="12"/>
            <rect x="112" y="148" width="12" height="12"/>
            <rect x="124" y="148" width="12" height="12"/>
            <rect x="148" y="148" width="12" height="12"/>
            <rect x="172" y="148" width="12" height="12"/>
            <rect x="184" y="148" width="12" height="12"/>
            <rect x="256" y="148" width="12" height="12"/>
            <rect x="268" y="148" width="12" height="12"/>
            <rect x="40" y="160" width="12" height="12"/>
            <rect x="52" y="160" width="12" height="12"/>
            <rect x="64" y="160" width="12" height="12"/>
            <rect x="112" y="160" width="12" height="12"/>
            <rect x="184" y="160" width="12" height="12"/>
            <rect x="196" y="160" width="12" height="12"/>
            <rect x="232" y="160" width="12" height="12"/>
            <rect x="244" y="160" width="12" height="12"/>
            <rect x="280" y="160" width="12" height="12"/>
            <rect x="304" y="160" width="12" height="12"/>
            <rect x="328" y="160" width="12" height="12"/>
            <rect x="28" y="172" width="12" height="12"/>
            <rect x="40" y="172" width="12" height="12"/>
            <rect x="76" y="172" width="12" height="12"/>
            <rect x="100" y="172" width="12" height="12"/>
            <rect x="112" y="172" width="12" height="12"/>
            <rect x="124" y="172" width="12" height="12"/>
            <rect x="148" y="172" width="12" height="12"/>
            <rect x="208" y="172" width="12" height="12"/>
            <rect x="220" y="172" width="12" height="12"/>
            <rect x="244" y="172" width="12" height="12"/>
            <rect x="304" y="172" width="12" height="12"/>
            <rect x="316" y="172" width="12" height="12"/>
            <rect x="328" y="172" width="12" height="12"/>
            <rect x="340" y="172" width="12" height="12"/>
            <rect x="4" y="184" width="12" height="12"/>
            <rect x="52" y="184" width="12" height="12"/>
            <rect x="64" y="184" width="12" height="12"/>
            <rect x="88" y="184" width="12" height="12"/>
            <rect x="100" y="184" width="12" height="12"/>
            <rect x="124" y="184" width="12" height="12"/>
            <rect x="172" y="184" width="12" height="12"/>
            <rect x="196" y="184" width="12" height="12"/>
            <rect x="208" y="184" width="12" height="12"/>
            <rect x="220" y="184" width="12" height="12"/>
            <rect x="232" y="184" width="12" height="12"/>
            <rect x="244" y="184" width="12" height="12"/>
            <rect x="268" y="184" width="12" height="12"/>
            <rect x="292" y="184" width="12" height="12"/>
            <rect x="328" y="184" width="12" height="12"/>
            <rect x="340" y="184" width="12" height="12"/>
            <rect x="28" y="196" width="12" height="12"/>
            <rect x="40" y="196" width="12" height="12"/>
            <rect x="64" y="196" width="12" height="12"/>
            <rect x="76" y="196" width="12" height="12"/>
            <rect x="88" y="196" width="12" height="12"/>
            <rect x="100" y="196" width="12" height="12"/>
            <rect x="112" y="196" width="12" height="12"/>
            <rect x="208" y="196" width="12" height="12"/>
            <rect x="244" y="196" width="12" height="12"/>
            <rect x="280" y="196" width="12" height="12"/>
            <rect x="292" y="196" width="12" height="12"/>
            <rect x="4" y="208" width="12" height="12"/>
            <rect x="16" y="208" width="12" height="12"/>
            <rect x="28" y="208" width="12" height="12"/>
            <rect x="64" y="208" width="12" height="12"/>
            <rect x="136" y="208" width="12" height="12"/>
            <rect x="160" y="208" width="12" height="12"/>
            <rect x="172" y="208" width="12" height="12"/>
            <rect x="184" y="208" width="12" height="12"/>
            <rect x="256" y="208" width="12" height="12"/>
            <rect x="280" y="208" width="12" height="12"/>
            <rect x="304" y="208" width="12" height="12"/>
            <rect x="328" y="208" width="12" height="12"/>
            <rect x="340" y="208" width="12" height="12"/>
            <rect x="4" y="220" width="12" height="12"/>
            <rect x="52" y="220" width="12" height="12"/>
            <rect x="64" y="220" width="12" height="12"/>
            <rect x="76" y="220" width="12" height="12"/>
            <rect x="112" y="220" width="12" height="12"/>
            <rect x="136" y="220" width="12" height="12"/>
            <rect x="148" y="220" width="12" height="12"/>
            <rect x="160" y="220" width="12" height="12"/>
            <rect x="172" y="220" width="12" height="12"/>
            <rect x="184" y="220" width="12" height="12"/>
            <rect x="208" y="220" width="12" height="12"/>
            <rect x="220" y="220" width="12" height="12"/>
            <rect x="304" y="220" width="12" height="12"/>
            <rect x="316" y="220" width="12" height="12"/>
            <rect x="340" y="220" width="12" height="12"/>
            <rect x="4" y="232" width="12" height="12"/>
            <rect x="40" y="232" width="12" height="12"/>
            <rect x="64" y="232" width="12" height="12"/>
            <rect x="88" y="232" width="12" height="12"/>
            <rect x="112" y="232" width="12" height="12"/>
            <rect x="124" y="232" width="12" height="12"/>
            <rect x="148" y="232" width="12" height="12"/>
            <rect x="160" y="232" width="12" height="12"/>
            <rect x="184" y="232" width="12" height="12"/>
            <rect x="232" y="232" width="12" height="12"/>
            <rect x="244" y="232" width="12" height="12"/>
            <rect x="256" y="232" width="12" height="12"/>
            <rect x="268" y="232" width="12" height="12"/>
            <rect x="280" y="232" width="12" height="12"/>
            <rect x="292" y="232" width="12" height="12"/>
            <rect x="4" y="244" width="12" height="12"/>
            <rect x="40" y="244" width="12" height="12"/>
            <rect x="52" y="244" width="12" height="12"/>
            <rect x="64" y="244" width="12" height="12"/>
            <rect x="76" y="244" width="12" height="12"/>
            <rect x="100" y="244" width="12" height="12"/>
            <rect x="124" y="244" width="12" height="12"/>
            <rect x="172" y="244" width="12" height="12"/>
            <rect x="184" y="244" width="12" height="12"/>
            <rect x="196" y="244" width="12" height="12"/>
            <rect x="220" y="244" width="12" height="12"/>
            <rect x="244" y="244" width="12" height="12"/>
            <rect x="256" y="244" width="12" height="12"/>
            <rect x="268" y="244" width="12" height="12"/>
            <rect x="280" y="244" width="12" height="12"/>
            <rect x="292" y="244" width="12" height="12"/>
            <rect x="304" y="244" width="12" height="12"/>
            <rect x="316" y="244" width="12" height="12"/>
            <rect x="328" y="244" width="12" height="12"/>
            <rect x="100" y="256" width="12" height="12"/>
            <rect x="136" y="256" width="12" height="12"/>
            <rect x="148" y="256" width="12" height="12"/>
            <rect x="196" y="256" width="12" height="12"/>
            <rect x="244" y="256" width="12" height="12"/>
            <rect x="292" y="256" width="12" height="12"/>
            <rect x="328" y="256" width="12" height="12"/>
            <rect x="124" y="268" width="12" height="12"/>
            <rect x="184" y="268" width="12" height="12"/>
            <rect x="208" y="268" width="12" height="12"/>
            <rect x="232" y="268" width="12" height="12"/>
            <rect x="244" y="268" width="12" height="12"/>
            <rect x="268" y="268" width="12" height="12"/>
            <rect x="292" y="268" width="12" height="12"/>
            <rect x="304" y="268" width="12" height="12"/>
            <rect x="316" y="268" width="12" height="12"/>
            <rect x="100" y="280" width="12" height="12"/>
            <rect x="112" y="280" width="12" height="12"/>
            <rect x="148" y="280" width="12" height="12"/>
            <rect x="172" y="280" width="12" height="12"/>
            <rect x="196" y="280" width="12" height="12"/>
            <rect x="232" y="280" width="12" height="12"/>
            <rect x="244" y="280" width="12" height="12"/>
            <rect x="292" y="280" width="12" height="12"/>
            <rect x="316" y="280" width="12" height="12"/>
            <rect x="328" y="280" width="12" height="12"/>
            <rect x="340" y="280" width="12" height="12"/>
            <rect x="100" y="292" width="12" height="12"/>
            <rect x="112" y="292" width="12" height="12"/>
            <rect x="148" y="292" width="12" height="12"/>
            <rect x="184" y="292" width="12" height="12"/>
            <rect x="208" y="292" width="12" height="12"/>
            <rect x="232" y="292" width="12" height="12"/>
            <rect x="244" y="292" width="12" height="12"/>
            <rect x="256" y="292" width="12" height="12"/>
            <rect x="268" y="292" width="12" height="12"/>
            <rect x="280" y="292" width="12" height="12"/>
            <rect x="292" y="292" width="12" height="12"/>
            <rect x="316" y="292" width="12" height="12"/>
            <rect x="328" y="292" width="12" height="12"/>
            <rect x="340" y="292" width="12" height="12"/>
            <rect x="100" y="304" width="12" height="12"/>
            <rect x="124" y="304" width="12" height="12"/>
            <rect x="148" y="304" width="12" height="12"/>
            <rect x="160" y="304" width="12" height="12"/>
            <rect x="172" y="304" width="12" height="12"/>
            <rect x="184" y="304" width="12" height="12"/>
            <rect x="196" y="304" width="12" height="12"/>
            <rect x="220" y="304" width="12" height="12"/>
            <rect x="244" y="304" width="12" height="12"/>
            <rect x="280" y="304" width="12" height="12"/>
            <rect x="100" y="316" width="12" height="12"/>
            <rect x="136" y="316" width="12" height="12"/>
            <rect x="160" y="316" width="12" height="12"/>
            <rect x="232" y="316" width="12" height="12"/>
            <rect x="280" y="316" width="12" height="12"/>
            <rect x="316" y="316" width="12" height="12"/>
            <rect x="328" y="316" width="12" height="12"/>
            <rect x="160" y="328" width="12" height="12"/>
            <rect x="172" y="328" width="12" height="12"/>
            <rect x="184" y="328" width="12" height="12"/>
            <rect x="196" y="328" width="12" height="12"/>
            <rect x="220" y="328" width="12" height="12"/>
            <rect x="244" y="328" width="12" height="12"/>
            <rect x="256" y="328" width="12" height="12"/>
            <rect x="304" y="328" width="12" height="12"/>
            <rect x="316" y="328" width="12" height="12"/>
            <rect x="340" y="328" width="12" height="12"/>
            <rect x="100" y="340" width="12" height="12"/>
            <rect x="112" y="340" width="12" height="12"/>
            <rect x="136" y="340" width="12" height="12"/>
            <rect x="160" y="340" width="12" height="12"/>
            <rect x="184" y="340" width="12" height="12"/>
            <rect x="196" y="340" width="12" height="12"/>
            <rect x="208" y="340" width="12" height="12"/>
            <rect x="232" y="340" width="12" height="12"/>
            <rect x="244" y="340" width="12" height="12"/>
            <rect x="256" y="340" width="12" height="12"/>
            <rect x="268" y="340" width="12" height="12"/>
            <rect x="292" y="340" width="12" height="12"/>
            <rect x="304" y="340" width="12" height="12"/>
            <rect x="316" y="340" width="12" height="12"/>
            <rect x="4" y="4" width="84" height="84"/>
            <rect x="16" y="16" width="60" height="60" style="fill:white;"/>
            <rect x="28" y="28" width="36" height="36"/>
            <rect x="268" y="4" width="84" height="84"/>
            <rect x="280" y="16" width="60" height="60" style="fill:white;"/>
            <rect x="292" y="28" width="36" height="36"/>
            <rect x="4" y="268" width="84" height="84"/>
            <rect x="16" y="280" width="60" height="60" style="fill:white;"/>
            <rect x="28" y="292" width="36" height="36"/>
        </g>
    </g>
</svg>
